# Blender 3.4.1
# www.blender.org
mtllib uvsphere.mtl
o Icosphere
v 0.000000 -1.000000 0.000000
v 0.723607 -0.447220 0.525725
v -0.276388 -0.447220 0.850649
v -0.894426 -0.447216 0.000000
v -0.276388 -0.447220 -0.850649
v 0.723607 -0.447220 -0.525725
v 0.276388 0.447220 0.850649
v -0.723607 0.447220 0.525725
v -0.723607 0.447220 -0.525725
v 0.276388 0.447220 -0.850649
v 0.894426 0.447216 0.000000
v 0.000000 1.000000 0.000000
v -0.162456 -0.850654 0.499995
v 0.425323 -0.850654 0.309011
v 0.262869 -0.525738 0.809012
v 0.850648 -0.525736 0.000000
v 0.425323 -0.850654 -0.309011
v -0.525730 -0.850652 0.000000
v -0.688189 -0.525736 0.499997
v -0.162456 -0.850654 -0.499995
v -0.688189 -0.525736 -0.499997
v 0.262869 -0.525738 -0.809012
v 0.951058 0.000000 0.309013
v 0.951058 0.000000 -0.309013
v 0.000000 0.000000 1.000000
v 0.587786 0.000000 0.809017
v -0.951058 0.000000 0.309013
v -0.587786 0.000000 0.809017
v -0.587786 0.000000 -0.809017
v -0.951058 0.000000 -0.309013
v 0.587786 0.000000 -0.809017
v 0.000000 0.000000 -1.000000
v 0.688189 0.525736 0.499997
v -0.262869 0.525738 0.809012
v -0.850648 0.525736 0.000000
v -0.262869 0.525738 -0.809012
v 0.688189 0.525736 -0.499997
v 0.162456 0.850654 0.499995
v 0.525730 0.850652 0.000000
v -0.425323 0.850654 0.309011
v -0.425323 0.850654 -0.309011
v 0.162456 0.850654 -0.499995
v -0.081228 -0.925327 0.249998
v 0.574465 -0.648937 0.417368
v -0.006760 -0.486479 0.829830
v 0.787128 -0.486478 0.262863
v 0.574465 -0.648937 -0.417368
v -0.262865 -0.925326 0.000000
v -0.791308 -0.486476 0.249998
v -0.081228 -0.925327 -0.249998
v -0.482289 -0.486478 -0.675323
v 0.493238 -0.486479 -0.667368
v 0.837333 -0.223610 0.417369
v 0.922742 0.223608 -0.154506
v -0.138194 -0.223610 0.925325
v 0.432087 0.223610 0.829833
v -0.922742 -0.223608 0.154506
v -0.655696 0.223610 0.667371
v -0.432087 -0.223610 -0.829833
v -0.837333 0.223610 -0.417369
v 0.655696 -0.223610 -0.667371
v 0.138194 0.223610 -0.925325
v 0.482289 0.486478 0.675323
v -0.493238 0.486479 0.667368
v -0.787128 0.486478 -0.262863
v 0.006760 0.486479 -0.829830
v 0.791308 0.486476 -0.249998
v 0.219422 0.648937 0.675322
v 0.262865 0.925326 0.000000
v -0.574465 0.648937 0.417368
v -0.574465 0.648937 -0.417368
v 0.219422 0.648937 -0.675322
v -0.219422 -0.648937 0.675322
v 0.212661 -0.925327 0.154506
v 0.493238 -0.486479 0.667368
v 0.787128 -0.486478 -0.262863
v 0.212661 -0.925327 -0.154506
v -0.710078 -0.648934 0.000000
v -0.482289 -0.486478 0.675323
v -0.219422 -0.648937 -0.675322
v -0.791308 -0.486476 -0.249998
v -0.006760 -0.486479 -0.829830
v 0.922742 0.223608 0.154506
v 0.837333 -0.223610 -0.417369
v 0.138194 0.223610 0.925325
v 0.655696 -0.223610 0.667371
v -0.837333 0.223610 0.417369
v -0.432087 -0.223610 0.829833
v -0.655696 0.223610 -0.667371
v -0.922742 -0.223608 -0.154506
v 0.432087 0.223610 -0.829833
v -0.138194 -0.223610 -0.925325
v 0.791308 0.486476 0.249998
v 0.006760 0.486479 0.829830
v -0.787128 0.486478 0.262863
v -0.493238 0.486479 -0.667368
v 0.482289 0.486478 -0.675323
v 0.081228 0.925327 0.249998
v 0.710078 0.648934 0.000000
v -0.212661 0.925327 0.154506
v -0.212661 0.925327 -0.154506
v 0.081228 0.925327 -0.249998
v 0.344093 0.850653 -0.249998
v 0.606960 0.688194 -0.249998
v 0.425322 0.688195 -0.499996
v -0.131434 0.850654 -0.404503
v -0.050207 0.688196 -0.654503
v -0.344096 0.688196 -0.559012
v -0.425323 0.850654 0.000000
v -0.637985 0.688195 -0.154506
v -0.637985 0.688195 0.154506
v -0.131434 0.850654 0.404503
v -0.344096 0.688196 0.559012
v -0.050207 0.688196 0.654503
v 0.344093 0.850653 0.249998
v 0.425322 0.688195 0.499996
v 0.606960 0.688194 0.249998
v 0.819624 0.262868 -0.404505
v 0.769422 0.000000 -0.559015
v 0.637987 0.262868 -0.654507
v -0.131434 0.262869 -0.904506
v -0.293893 0.000000 -0.904508
v -0.425327 0.262869 -0.809014
v -0.900853 0.262868 -0.154506
v -0.951058 0.000000 0.000000
v -0.900853 0.262868 0.154506
v -0.425327 0.262869 0.809014
v -0.293893 0.000000 0.904508
v -0.131434 0.262869 0.904506
v 0.637987 0.262868 0.654507
v 0.769422 0.000000 0.559015
v 0.819624 0.262868 0.404505
v 0.293893 0.000000 -0.904508
v 0.425327 -0.262869 -0.809014
v 0.131434 -0.262869 -0.904506
v -0.769422 0.000000 -0.559015
v -0.637987 -0.262868 -0.654507
v -0.819624 -0.262868 -0.404505
v -0.769422 0.000000 0.559015
v -0.819624 -0.262868 0.404505
v -0.637987 -0.262868 0.654507
v 0.293893 0.000000 0.904508
v 0.131434 -0.262869 0.904506
v 0.425327 -0.262869 0.809014
v 0.951058 0.000000 0.000000
v 0.900853 -0.262868 0.154506
v 0.900853 -0.262868 -0.154506
v 0.344096 -0.688196 -0.559012
v 0.131434 -0.850654 -0.404503
v 0.050207 -0.688196 -0.654503
v -0.425322 -0.688195 -0.499996
v -0.344093 -0.850653 -0.249998
v -0.606960 -0.688194 -0.249998
v -0.606960 -0.688194 0.249998
v -0.344093 -0.850653 0.249998
v -0.425322 -0.688195 0.499996
v 0.637985 -0.688195 -0.154506
v 0.637985 -0.688195 0.154506
v 0.425323 -0.850654 0.000000
v 0.050207 -0.688196 0.654503
v 0.131434 -0.850654 0.404503
v 0.344096 -0.688196 0.559012
vn 0.1024 -0.9435 0.3151
vn 0.7002 -0.6617 0.2680
vn -0.2680 -0.9435 0.1947
vn -0.2680 -0.9435 -0.1947
vn 0.1024 -0.9435 -0.3151
vn 0.9050 -0.3304 0.2680
vn 0.0247 -0.3304 0.9435
vn -0.8897 -0.3304 0.3151
vn -0.5746 -0.3304 -0.7488
vn 0.5346 -0.3304 -0.7779
vn 0.8026 -0.1256 0.5831
vn -0.3066 -0.1256 0.9435
vn -0.9921 -0.1256 -0.0000
vn -0.3066 -0.1256 -0.9435
vn 0.8026 -0.1256 -0.5831
vn 0.4089 0.6617 0.6284
vn -0.4713 0.6617 0.5831
vn -0.7002 0.6617 -0.2680
vn 0.0385 0.6617 -0.7488
vn 0.7240 0.6617 -0.1947
vn 0.2680 0.9435 -0.1947
vn 0.4911 0.7947 -0.3568
vn 0.4089 0.6617 -0.6284
vn -0.1024 0.9435 -0.3151
vn -0.1876 0.7947 -0.5773
vn -0.4713 0.6617 -0.5831
vn -0.3313 0.9435 -0.0000
vn -0.6071 0.7947 -0.0000
vn -0.7002 0.6617 0.2680
vn -0.1024 0.9435 0.3151
vn -0.1876 0.7947 0.5773
vn 0.0385 0.6617 0.7488
vn 0.2680 0.9435 0.1947
vn 0.4911 0.7947 0.3568
vn 0.7240 0.6617 0.1947
vn 0.8897 0.3304 -0.3151
vn 0.7947 0.1876 -0.5773
vn 0.5746 0.3304 -0.7488
vn -0.0247 0.3304 -0.9435
vn -0.3035 0.1876 -0.9342
vn -0.5346 0.3304 -0.7779
vn -0.9050 0.3304 -0.2680
vn -0.9822 0.1876 -0.0000
vn -0.9050 0.3304 0.2680
vn -0.5346 0.3304 0.7779
vn -0.3035 0.1876 0.9342
vn -0.0247 0.3304 0.9435
vn 0.5746 0.3304 0.7488
vn 0.7947 0.1876 0.5773
vn 0.8897 0.3304 0.3151
vn 0.3066 0.1256 -0.9435
vn 0.3035 -0.1876 -0.9342
vn 0.0247 -0.3304 -0.9435
vn -0.8026 0.1256 -0.5831
vn -0.7947 -0.1876 -0.5773
vn -0.8897 -0.3304 -0.3151
vn -0.8026 0.1256 0.5831
vn -0.7947 -0.1876 0.5773
vn -0.5746 -0.3304 0.7488
vn 0.3066 0.1256 0.9435
vn 0.3035 -0.1876 0.9342
vn 0.5346 -0.3304 0.7779
vn 0.9921 0.1256 -0.0000
vn 0.9822 -0.1876 -0.0000
vn 0.9050 -0.3304 -0.2680
vn 0.4713 -0.6617 -0.5831
vn 0.1876 -0.7947 -0.5773
vn -0.0385 -0.6617 -0.7488
vn -0.4089 -0.6617 -0.6284
vn -0.4911 -0.7947 -0.3568
vn -0.7240 -0.6617 -0.1947
vn -0.7240 -0.6617 0.1947
vn -0.4911 -0.7947 0.3568
vn -0.4089 -0.6617 0.6284
vn 0.7002 -0.6617 -0.2680
vn 0.6071 -0.7947 -0.0000
vn 0.3313 -0.9435 -0.0000
vn -0.0385 -0.6617 0.7488
vn 0.1876 -0.7947 0.5773
vn 0.4713 -0.6617 0.5831
vt 0.181819 0.000000
vt 0.909091 0.000000
vt 0.727273 0.000000
vt 0.545455 0.000000
vt 0.363637 0.000000
vt 0.272728 0.157461
vt 0.090910 0.157461
vt 1.000000 0.157461
vt 0.818182 0.157461
vt 0.636364 0.157461
vt 0.454546 0.157461
vt 0.181819 0.314921
vt 0.000000 0.314921
vt 0.909091 0.314921
vt 0.727273 0.314921
vt 0.545455 0.314921
vt 0.363637 0.314921
vt 0.272728 0.472382
vt 0.090910 0.472382
vt 0.818182 0.472382
vt 0.636364 0.472382
vt 0.454546 0.472382
vt 0.954545 0.078731
vt 0.136365 0.078731
vt 0.318182 0.078731
vt 0.227273 0.078731
vt 0.181819 0.157461
vt 0.363637 0.157461
vt 0.409092 0.078731
vt 0.500000 0.078731
vt 0.772727 0.078731
vt 0.863636 0.078731
vt 0.909091 0.157461
vt 0.590909 0.078731
vt 0.681818 0.078731
vt 0.727273 0.157461
vt 0.545455 0.157461
vt 0.318182 0.236191
vt 0.409092 0.236191
vt 0.136365 0.236191
vt 0.227273 0.236191
vt 0.863636 0.236191
vt 0.954545 0.236191
vt 0.045455 0.236191
vt 0.681818 0.236191
vt 0.772727 0.236191
vt 0.500000 0.236191
vt 0.590909 0.236191
vt 0.272728 0.314921
vt 0.090910 0.314921
vt 0.818182 0.314921
vt 0.636364 0.314921
vt 0.454546 0.314921
vt 0.136365 0.393651
vt 0.227273 0.393651
vt 0.318182 0.393651
vt 0.409092 0.393651
vt 0.863636 0.393651
vt 0.045455 0.393651
vt 0.681818 0.393651
vt 0.772727 0.393651
vt 0.500000 0.393651
vt 0.590909 0.393651
vt 0.931818 0.039365
vt 0.159092 0.039365
vt 0.250001 0.118096
vt 0.295455 0.118096
vt 0.136364 0.157461
vt 0.318182 0.157461
vt 0.431819 0.118096
vt 0.477273 0.118096
vt 0.750000 0.039365
vt 0.886364 0.039365
vt 0.863636 0.157461
vt 0.568182 0.039365
vt 0.704546 0.039365
vt 0.681818 0.157461
vt 0.500000 0.157461
vt 0.295455 0.196826
vt 0.386364 0.275556
vt 0.113637 0.196826
vt 0.204546 0.275556
vt 0.840909 0.196826
vt 0.931818 0.275556
vt 0.022728 0.275556
vt 0.659091 0.196826
vt 0.750000 0.275556
vt 0.477273 0.196826
vt 0.568182 0.275556
vt 0.227273 0.314921
vt 0.045455 0.314921
vt 0.772727 0.314921
vt 0.590909 0.314921
vt 0.409091 0.314921
vt 0.159092 0.354286
vt 0.204546 0.354286
vt 0.295455 0.433017
vt 0.431819 0.433017
vt 0.886364 0.354286
vt 0.022728 0.354286
vt 0.704546 0.354286
vt 0.750000 0.354286
vt 0.522728 0.354286
vt 0.568182 0.354286
vt 0.113637 0.118096
vt 0.977273 0.118096
vt 0.340910 0.039365
vt 0.204546 0.039365
vt 0.227273 0.157461
vt 0.409092 0.157461
vt 0.386364 0.039365
vt 0.522728 0.039365
vt 0.840909 0.118096
vt 0.795455 0.118096
vt 0.954545 0.157461
vt 0.659091 0.118096
vt 0.613637 0.118096
vt 0.772727 0.157461
vt 0.590909 0.157461
vt 0.340910 0.275556
vt 0.431819 0.196826
vt 0.159092 0.275556
vt 0.250001 0.196826
vt 0.886364 0.275556
vt 0.977273 0.196826
vt 0.068182 0.196826
vt 0.704546 0.275556
vt 0.795455 0.196826
vt 0.522728 0.275556
vt 0.613637 0.196826
vt 0.318182 0.314921
vt 0.136364 0.314921
vt 0.863636 0.314921
vt 0.681818 0.314921
vt 0.500000 0.314921
vt 0.250001 0.433017
vt 0.113637 0.433017
vt 0.340910 0.354286
vt 0.386364 0.354286
vt 0.068182 0.433017
vt 0.840909 0.433017
vt 0.795455 0.433017
vt 0.659091 0.433017
vt 0.613637 0.433017
vt 0.477273 0.433017
vt 0.454546 0.393651
vt 0.431819 0.354286
vt 0.477273 0.354286
vt 0.636364 0.393651
vt 0.613637 0.354286
vt 0.659091 0.354286
vt 0.818182 0.393651
vt 0.795455 0.354286
vt 0.840909 0.354286
vt 0.090910 0.393651
vt 0.068182 0.354286
vt 0.113637 0.354286
vt 0.272728 0.393651
vt 0.250001 0.354286
vt 0.295455 0.354286
vt 0.431819 0.275556
vt 0.454546 0.236191
vt 0.477273 0.275556
vt 0.613637 0.275556
vt 0.636364 0.236191
vt 0.659091 0.275556
vt 0.795455 0.275556
vt 0.818182 0.236191
vt 0.840909 0.275556
vt 0.068182 0.275556
vt 0.090910 0.236191
vt 0.113637 0.275556
vt 0.250001 0.275556
vt 0.272728 0.236191
vt 0.295455 0.275556
vt 0.545455 0.236191
vt 0.522728 0.196826
vt 0.568182 0.196826
vt 0.727273 0.236191
vt 0.704546 0.196826
vt 0.750000 0.196826
vt 0.909091 0.236191
vt 0.886364 0.196826
vt 0.931818 0.196826
vt 0.181819 0.236191
vt 0.159092 0.196826
vt 0.204546 0.196826
vt 0.363637 0.236191
vt 0.340910 0.196826
vt 0.386364 0.196826
vt 0.522728 0.118096
vt 0.545455 0.078731
vt 0.568182 0.118096
vt 0.704546 0.118096
vt 0.727273 0.078731
vt 0.750000 0.118096
vt 0.886364 0.118096
vt 0.909091 0.078731
vt 0.931818 0.118096
vt 0.386364 0.118096
vt 0.340910 0.118096
vt 0.363637 0.078731
vt 0.159092 0.118096
vt 0.181819 0.078731
vt 0.204546 0.118096
s 0
usemtl Material.001
f 1/1/1 74/108/1 43/65/1
f 2/6/2 44/67/2 46/69/2
f 1/2/3 43/64/3 48/73/3
f 1/3/4 48/72/4 50/76/4
f 1/4/5 50/75/5 77/112/5
f 2/6/6 46/69/6 53/79/6
f 3/7/7 45/68/7 55/81/7
f 4/9/8 49/74/8 57/83/8
f 5/10/9 51/77/9 59/86/9
f 6/11/10 52/78/10 61/88/10
f 2/6/11 53/79/11 86/123/11
f 3/7/12 55/81/12 88/126/12
f 4/9/13 57/83/13 90/128/13
f 5/10/14 59/86/14 92/130/14
f 6/11/15 61/88/15 84/121/15
f 7/12/16 63/90/16 68/96/16
f 8/13/17 64/91/17 70/100/17
f 9/15/18 65/92/18 71/102/18
f 10/16/19 66/93/19 72/104/19
f 11/17/20 67/94/20 99/139/20
f 39/57/21 103/146/21 69/98/21
f 39/57/22 104/147/22 103/146/22
f 37/53/23 97/135/23 105/148/23
f 42/63/24 106/149/24 102/144/24
f 42/63/25 107/150/25 106/149/25
f 36/52/26 96/134/26 108/151/26
f 41/61/27 109/152/27 101/142/27
f 41/61/28 110/153/28 109/152/28
f 35/51/29 95/133/29 111/154/29
f 40/59/30 112/155/30 100/140/30
f 40/59/31 113/156/31 112/155/31
f 34/50/32 94/132/32 114/157/32
f 38/55/33 115/158/33 98/136/33
f 38/55/34 116/159/34 115/158/34
f 33/49/35 93/131/35 117/160/35
f 24/39/36 118/161/36 54/80/36
f 24/39/37 119/162/37 118/161/37
f 31/47/38 91/129/38 120/163/38
f 32/48/39 121/164/39 62/89/39
f 32/48/40 122/165/40 121/164/40
f 29/45/41 89/127/41 123/166/41
f 30/46/42 124/167/42 60/87/42
f 30/46/43 125/168/43 124/167/43
f 27/42/44 87/124/44 126/169/44
f 28/44/45 127/170/45 58/85/45
f 28/44/46 128/171/46 127/170/46
f 25/40/47 85/122/47 129/172/47
f 26/41/48 130/173/48 56/82/48
f 26/41/49 131/174/49 130/173/49
f 23/38/50 83/120/50 132/175/50
f 31/47/51 133/176/51 91/129/51
f 31/47/52 134/177/52 133/176/52
f 22/37/53 82/119/53 135/178/53
f 29/45/54 136/179/54 89/127/54
f 29/45/55 137/180/55 136/179/55
f 21/36/56 81/118/56 138/181/56
f 27/42/57 139/182/57 87/124/57
f 27/42/58 140/183/58 139/182/58
f 19/33/59 79/115/59 141/184/59
f 25/40/60 142/185/60 85/122/60
f 25/40/61 143/186/61 142/185/61
f 15/27/62 75/109/62 144/187/62
f 23/38/63 145/188/63 83/120/63
f 23/38/64 146/189/64 145/188/64
f 16/28/65 76/110/65 147/190/65
f 17/30/66 148/191/66 47/71/66
f 17/30/67 149/192/67 148/191/67
f 20/34/68 80/117/68 150/193/68
f 20/35/69 151/194/69 80/116/69
f 20/35/70 152/195/70 151/194/70
f 18/31/71 78/114/71 153/196/71
f 18/32/72 154/197/72 78/113/72
f 18/32/73 155/198/73 154/197/73
f 13/23/74 73/106/74 156/199/74
f 16/28/75 157/200/75 76/110/75
f 16/28/76 158/201/76 157/200/76
f 14/25/77 74/107/77 159/202/77
f 13/24/78 160/203/78 73/105/78
f 13/24/79 161/204/79 160/203/79
f 14/26/80 44/66/80 162/205/80
f 162/205/80 75/109/80 15/27/80
f 162/205/80 44/66/80 75/109/80
f 44/66/80 2/6/80 75/109/80
f 160/203/79 162/205/79 15/27/79
f 160/203/79 161/204/79 162/205/79
f 161/204/79 14/26/79 162/205/79
f 73/105/78 45/68/78 3/7/78
f 73/105/78 160/203/78 45/68/78
f 160/203/78 15/27/78 45/68/78
f 159/202/77 77/111/77 17/29/77
f 159/202/77 74/107/77 77/111/77
f 74/107/77 1/5/77 77/111/77
f 157/200/76 159/202/76 17/29/76
f 157/200/76 158/201/76 159/202/76
f 158/201/76 14/25/76 159/202/76
f 76/110/75 47/70/75 6/11/75
f 76/110/75 157/200/75 47/70/75
f 157/200/75 17/29/75 47/70/75
f 156/199/74 79/115/74 19/33/74
f 156/199/74 73/106/74 79/115/74
f 73/106/74 3/8/74 79/115/74
f 154/197/73 156/199/73 19/33/73
f 154/197/73 155/198/73 156/199/73
f 155/198/73 13/23/73 156/199/73
f 78/113/72 49/74/72 4/9/72
f 78/113/72 154/197/72 49/74/72
f 154/197/72 19/33/72 49/74/72
f 153/196/71 81/118/71 21/36/71
f 153/196/71 78/114/71 81/118/71
f 78/114/71 4/9/71 81/118/71
f 151/194/70 153/196/70 21/36/70
f 151/194/70 152/195/70 153/196/70
f 152/195/70 18/31/70 153/196/70
f 80/116/69 51/77/69 5/10/69
f 80/116/69 151/194/69 51/77/69
f 151/194/69 21/36/69 51/77/69
f 150/193/68 82/119/68 22/37/68
f 150/193/68 80/117/68 82/119/68
f 80/117/68 5/10/68 82/119/68
f 148/191/67 150/193/67 22/37/67
f 148/191/67 149/192/67 150/193/67
f 149/192/67 20/34/67 150/193/67
f 47/71/66 52/78/66 6/11/66
f 47/71/66 148/191/66 52/78/66
f 148/191/66 22/37/66 52/78/66
f 147/190/65 84/121/65 24/39/65
f 147/190/65 76/110/65 84/121/65
f 76/110/65 6/11/65 84/121/65
f 145/188/64 147/190/64 24/39/64
f 145/188/64 146/189/64 147/190/64
f 146/189/64 16/28/64 147/190/64
f 83/120/63 54/80/63 11/17/63
f 83/120/63 145/188/63 54/80/63
f 145/188/63 24/39/63 54/80/63
f 144/187/62 86/123/62 26/41/62
f 144/187/62 75/109/62 86/123/62
f 75/109/62 2/6/62 86/123/62
f 142/185/61 144/187/61 26/41/61
f 142/185/61 143/186/61 144/187/61
f 143/186/61 15/27/61 144/187/61
f 85/122/60 56/82/60 7/12/60
f 85/122/60 142/185/60 56/82/60
f 142/185/60 26/41/60 56/82/60
f 141/184/59 88/125/59 28/43/59
f 141/184/59 79/115/59 88/125/59
f 79/115/59 3/8/59 88/125/59
f 139/182/58 141/184/58 28/43/58
f 139/182/58 140/183/58 141/184/58
f 140/183/58 19/33/58 141/184/58
f 87/124/57 58/84/57 8/14/57
f 87/124/57 139/182/57 58/84/57
f 139/182/57 28/43/57 58/84/57
f 138/181/56 90/128/56 30/46/56
f 138/181/56 81/118/56 90/128/56
f 81/118/56 4/9/56 90/128/56
f 136/179/55 138/181/55 30/46/55
f 136/179/55 137/180/55 138/181/55
f 137/180/55 21/36/55 138/181/55
f 89/127/54 60/87/54 9/15/54
f 89/127/54 136/179/54 60/87/54
f 136/179/54 30/46/54 60/87/54
f 135/178/53 92/130/53 32/48/53
f 135/178/53 82/119/53 92/130/53
f 82/119/53 5/10/53 92/130/53
f 133/176/52 135/178/52 32/48/52
f 133/176/52 134/177/52 135/178/52
f 134/177/52 22/37/52 135/178/52
f 91/129/51 62/89/51 10/16/51
f 91/129/51 133/176/51 62/89/51
f 133/176/51 32/48/51 62/89/51
f 132/175/50 93/131/50 33/49/50
f 132/175/50 83/120/50 93/131/50
f 83/120/50 11/17/50 93/131/50
f 130/173/49 132/175/49 33/49/49
f 130/173/49 131/174/49 132/175/49
f 131/174/49 23/38/49 132/175/49
f 56/82/48 63/90/48 7/12/48
f 56/82/48 130/173/48 63/90/48
f 130/173/48 33/49/48 63/90/48
f 129/172/47 94/132/47 34/50/47
f 129/172/47 85/122/47 94/132/47
f 85/122/47 7/12/47 94/132/47
f 127/170/46 129/172/46 34/50/46
f 127/170/46 128/171/46 129/172/46
f 128/171/46 25/40/46 129/172/46
f 58/85/45 64/91/45 8/13/45
f 58/85/45 127/170/45 64/91/45
f 127/170/45 34/50/45 64/91/45
f 126/169/44 95/133/44 35/51/44
f 126/169/44 87/124/44 95/133/44
f 87/124/44 8/14/44 95/133/44
f 124/167/43 126/169/43 35/51/43
f 124/167/43 125/168/43 126/169/43
f 125/168/43 27/42/43 126/169/43
f 60/87/42 65/92/42 9/15/42
f 60/87/42 124/167/42 65/92/42
f 124/167/42 35/51/42 65/92/42
f 123/166/41 96/134/41 36/52/41
f 123/166/41 89/127/41 96/134/41
f 89/127/41 9/15/41 96/134/41
f 121/164/40 123/166/40 36/52/40
f 121/164/40 122/165/40 123/166/40
f 122/165/40 29/45/40 123/166/40
f 62/89/39 66/93/39 10/16/39
f 62/89/39 121/164/39 66/93/39
f 121/164/39 36/52/39 66/93/39
f 120/163/38 97/135/38 37/53/38
f 120/163/38 91/129/38 97/135/38
f 91/129/38 10/16/38 97/135/38
f 118/161/37 120/163/37 37/53/37
f 118/161/37 119/162/37 120/163/37
f 119/162/37 31/47/37 120/163/37
f 54/80/36 67/94/36 11/17/36
f 54/80/36 118/161/36 67/94/36
f 118/161/36 37/53/36 67/94/36
f 117/160/35 99/138/35 39/56/35
f 117/160/35 93/131/35 99/138/35
f 93/131/35 11/17/35 99/138/35
f 115/158/34 117/160/34 39/56/34
f 115/158/34 116/159/34 117/160/34
f 116/159/34 33/49/34 117/160/34
f 98/136/33 69/97/33 12/18/33
f 98/136/33 115/158/33 69/97/33
f 115/158/33 39/56/33 69/97/33
f 114/157/32 68/95/32 38/54/32
f 114/157/32 94/132/32 68/95/32
f 94/132/32 7/12/32 68/95/32
f 112/155/31 114/157/31 38/54/31
f 112/155/31 113/156/31 114/157/31
f 113/156/31 34/50/31 114/157/31
f 100/140/30 98/137/30 12/19/30
f 100/140/30 112/155/30 98/137/30
f 112/155/30 38/54/30 98/137/30
f 111/154/29 70/99/29 40/58/29
f 111/154/29 95/133/29 70/99/29
f 95/133/29 8/14/29 70/99/29
f 109/152/28 111/154/28 40/58/28
f 109/152/28 110/153/28 111/154/28
f 110/153/28 35/51/28 111/154/28
f 101/142/27 100/141/27 12/20/27
f 101/142/27 109/152/27 100/141/27
f 109/152/27 40/58/27 100/141/27
f 108/151/26 71/101/26 41/60/26
f 108/151/26 96/134/26 71/101/26
f 96/134/26 9/15/26 71/101/26
f 106/149/25 108/151/25 41/60/25
f 106/149/25 107/150/25 108/151/25
f 107/150/25 36/52/25 108/151/25
f 102/144/24 101/143/24 12/21/24
f 102/144/24 106/149/24 101/143/24
f 106/149/24 41/60/24 101/143/24
f 105/148/23 72/103/23 42/62/23
f 105/148/23 97/135/23 72/103/23
f 97/135/23 10/16/23 72/103/23
f 103/146/22 105/148/22 42/62/22
f 103/146/22 104/147/22 105/148/22
f 104/147/22 37/53/22 105/148/22
f 69/98/21 102/145/21 12/22/21
f 69/98/21 103/146/21 102/145/21
f 103/146/21 42/62/21 102/145/21
f 99/139/20 104/147/20 39/57/20
f 99/139/20 67/94/20 104/147/20
f 67/94/20 37/53/20 104/147/20
f 72/104/19 107/150/19 42/63/19
f 72/104/19 66/93/19 107/150/19
f 66/93/19 36/52/19 107/150/19
f 71/102/18 110/153/18 41/61/18
f 71/102/18 65/92/18 110/153/18
f 65/92/18 35/51/18 110/153/18
f 70/100/17 113/156/17 40/59/17
f 70/100/17 64/91/17 113/156/17
f 64/91/17 34/50/17 113/156/17
f 68/96/16 116/159/16 38/55/16
f 68/96/16 63/90/16 116/159/16
f 63/90/16 33/49/16 116/159/16
f 84/121/15 119/162/15 24/39/15
f 84/121/15 61/88/15 119/162/15
f 61/88/15 31/47/15 119/162/15
f 92/130/14 122/165/14 32/48/14
f 92/130/14 59/86/14 122/165/14
f 59/86/14 29/45/14 122/165/14
f 90/128/13 125/168/13 30/46/13
f 90/128/13 57/83/13 125/168/13
f 57/83/13 27/42/13 125/168/13
f 88/126/12 128/171/12 28/44/12
f 88/126/12 55/81/12 128/171/12
f 55/81/12 25/40/12 128/171/12
f 86/123/11 131/174/11 26/41/11
f 86/123/11 53/79/11 131/174/11
f 53/79/11 23/38/11 131/174/11
f 61/88/10 134/177/10 31/47/10
f 61/88/10 52/78/10 134/177/10
f 52/78/10 22/37/10 134/177/10
f 59/86/9 137/180/9 29/45/9
f 59/86/9 51/77/9 137/180/9
f 51/77/9 21/36/9 137/180/9
f 57/83/8 140/183/8 27/42/8
f 57/83/8 49/74/8 140/183/8
f 49/74/8 19/33/8 140/183/8
f 55/81/7 143/186/7 25/40/7
f 55/81/7 45/68/7 143/186/7
f 45/68/7 15/27/7 143/186/7
f 53/79/6 146/189/6 23/38/6
f 53/79/6 46/69/6 146/189/6
f 46/69/6 16/28/6 146/189/6
f 77/112/5 149/192/5 17/30/5
f 77/112/5 50/75/5 149/192/5
f 50/75/5 20/34/5 149/192/5
f 50/76/4 152/195/4 20/35/4
f 50/76/4 48/72/4 152/195/4
f 48/72/4 18/31/4 152/195/4
f 48/73/3 155/198/3 18/32/3
f 48/73/3 43/64/3 155/198/3
f 43/64/3 13/23/3 155/198/3
f 46/69/2 158/201/2 16/28/2
f 46/69/2 44/67/2 158/201/2
f 44/67/2 14/25/2 158/201/2
f 43/65/1 161/204/1 13/24/1
f 43/65/1 74/108/1 161/204/1
f 74/108/1 14/26/1 161/204/1
